<?xml version="1.0" standalone="no"?>
<!DOCTYPE svg PUBLIC "-//W3C//DTD SVG 20010904//EN"
 "http://www.w3.org/TR/2001/REC-SVG-20010904/DTD/svg10.dtd">
<svg version="1.0" xmlns="http://www.w3.org/2000/svg"
 width="500.000000pt" height="500.000000pt" viewBox="0 0 500.000000 500.000000"
 preserveAspectRatio="xMidYMid meet">
<metadata>
Created by potrace 1.14, written by Peter Selinger 2001-2017
</metadata>
<g transform="translate(0.000000,500.000000) scale(0.100000,-0.100000)"
fill="#000000" stroke="none">
<path d="M2230 3020 l0 -210 61 41 c58 40 186 99 215 99 11 0 14 27 14 140 l0
140 -145 0 -145 0 0 -210z"/>
<path d="M1810 2650 l0 -140 108 0 109 0 41 83 c22 45 64 108 92 140 l52 57
-201 0 -201 0 0 -140z"/>
<path d="M2615 2008 c-41 -23 -44 -38 -45 -184 0 -128 2 -144 21 -168 27 -34
58 -37 35 -4 -13 18 -16 52 -16 166 0 138 7 176 34 194 18 12 -7 8 -29 -4z"/>
<path d="M2921 1971 c-7 -33 -7 -59 -1 -73 10 -25 53 -223 54 -250 0 -13 9
-18 29 -18 15 0 26 4 23 8 -2 4 -23 90 -45 191 -22 101 -42 186 -45 188 -2 2
-9 -18 -15 -46z"/>
<path d="M1390 1978 c40 -174 85 -347 88 -344 2 3 7 21 12 41 7 29 0 70 -28
186 -33 135 -38 149 -58 149 -20 0 -21 -3 -14 -32z"/>
<path d="M1555 1820 l0 -190 23 0 22 0 0 190 0 190 -22 0 -23 0 0 -190z"/>
<path d="M1765 1820 l0 -190 23 0 22 0 0 190 0 190 -22 0 -23 0 0 -190z"/>
<path d="M1877 1998 c6 -7 13 -20 16 -28 3 -9 6 -3 6 13 1 19 -4 27 -15 27
-12 0 -14 -4 -7 -12z"/>
<path d="M2050 1820 l0 -190 23 0 22 0 0 190 0 190 -22 0 -23 0 0 -190z"/>
<path d="M2149 1984 c19 -24 21 -40 21 -161 0 -141 -7 -168 -43 -183 -18 -7
-19 -9 -4 -9 27 -1 75 26 81 46 6 21 8 85 7 201 -1 74 -4 86 -26 107 -13 14
-31 25 -40 25 -14 0 -13 -4 4 -26z"/>
<path d="M2368 1820 l-3 -190 25 0 25 0 -3 190 c-3 180 -4 190 -22 190 -18 0
-19 -10 -22 -190z"/>
<path d="M2688 1998 c7 -9 17 -29 22 -45 7 -25 8 -23 8 17 0 25 -2 39 -5 32
-4 -10 -8 -10 -21 0 -15 12 -15 11 -4 -4z"/>
<path d="M3170 1820 l0 -190 25 0 25 0 0 190 0 190 -25 0 -25 0 0 -190z"/>
<path d="M3270 1990 c27 -27 28 -118 2 -150 -18 -23 -18 -24 0 -42 14 -14 18
-33 18 -81 0 -36 5 -68 12 -75 15 -15 45 -15 54 0 4 7 3 8 -4 4 -9 -5 -12 8
-12 46 0 59 -28 118 -57 118 -12 0 -7 8 17 29 31 25 35 34 35 76 0 39 -5 51
-28 71 -35 30 -67 34 -37 4z"/>
<path d="M3495 1820 l0 -190 23 0 22 0 0 190 0 190 -22 0 -23 0 0 -190z"/>
<path d="M3607 1998 c6 -7 13 -20 16 -28 3 -9 6 -3 6 13 1 19 -4 27 -15 27
-12 0 -14 -4 -7 -12z"/>
<path d="M1857 1839 c-3 -12 -2 -31 3 -42 7 -18 9 -14 9 21 1 46 -4 54 -12 21z"/>
<path d="M3587 1839 c-3 -12 -2 -31 3 -42 7 -18 9 -14 9 21 1 46 -4 54 -12 21z"/>
<path d="M2707 1683 c-3 -16 -1 -35 4 -43 6 -10 8 -2 9 28 0 48 -5 55 -13 15z"/>
<path d="M1890 1665 c0 -7 -8 -19 -17 -24 -16 -9 -16 -10 5 -11 17 0 22 6 22
25 0 14 -2 25 -5 25 -3 0 -5 -7 -5 -15z"/>
<path d="M3620 1665 c0 -7 -8 -19 -17 -24 -16 -9 -16 -10 5 -11 17 0 22 6 22
25 0 14 -2 25 -5 25 -3 0 -5 -7 -5 -15z"/>
<path d="M2842 1645 c-11 -12 -10 -15 3 -15 8 0 15 7 15 15 0 18 -2 18 -18 0z"/>
<path d="M1375 1640 c-3 -5 1 -10 10 -10 9 0 13 5 10 10 -3 6 -8 10 -10 10 -2
0 -7 -4 -10 -10z"/>
<path d="M1802 1578 c-7 -7 -12 -18 -12 -25 0 -7 -4 -13 -10 -13 -5 0 -10 -7
-10 -15 0 -8 5 -15 10 -15 6 0 10 -22 10 -50 0 -38 4 -50 15 -50 11 0 15 12
15 50 0 38 4 50 15 50 8 0 15 7 15 15 0 8 -7 15 -16 15 -9 0 -14 6 -11 13 2 6
12 11 21 11 9 -1 16 4 16 12 0 17 -41 19 -58 2z"/>
<path d="M3552 1503 c3 -83 4 -88 26 -91 12 -2 22 1 22 7 0 6 -4 11 -10 11 -6
0 -10 33 -10 80 0 65 -3 80 -15 80 -13 0 -15 -14 -13 -87z"/>
<path d="M3740 1500 c0 -73 3 -90 15 -90 11 0 15 12 15 44 0 41 19 74 33 59 4
-3 7 -28 7 -55 0 -41 3 -48 20 -48 17 0 20 7 20 46 0 65 -14 88 -51 80 -27 -5
-29 -3 -29 24 0 20 -5 30 -15 30 -12 0 -15 -17 -15 -90z"/>
<path d="M1172 1557 c-30 -31 -30 -99 -1 -128 24 -24 94 -24 94 1 0 15 -7 16
-37 5 -11 -5 -22 2 -34 20 -23 36 -9 89 26 93 14 2 32 5 40 8 13 4 13 6 0 14
-26 17 -66 11 -88 -13z"/>
<path d="M2230 1496 l0 -86 39 0 c50 0 86 28 77 58 -4 12 -11 22 -16 22 -5 0
-4 11 2 25 15 34 -5 55 -61 62 l-41 6 0 -87z m70 34 c0 -13 -7 -20 -20 -20
-13 0 -20 7 -20 20 0 13 7 20 20 20 13 0 20 -7 20 -20z m10 -70 c0 -15 -7 -20
-25 -20 -18 0 -25 5 -25 20 0 15 7 20 25 20 18 0 25 -5 25 -20z"/>
<path d="M3080 1495 c0 -69 3 -85 15 -85 10 0 15 11 15 35 0 32 2 35 30 35 28
0 30 -3 30 -35 0 -24 5 -35 15 -35 12 0 15 16 15 85 0 69 -3 85 -15 85 -10 0
-15 -11 -15 -35 0 -32 -2 -35 -30 -35 -28 0 -30 3 -30 35 0 24 -5 35 -15 35
-12 0 -15 -16 -15 -85z"/>
<path d="M2540 1555 c0 -8 -4 -15 -10 -15 -5 0 -10 -7 -10 -15 0 -8 4 -15 9
-15 6 0 11 -21 13 -47 3 -46 4 -48 37 -51 24 -3 32 0 29 10 -3 7 -11 13 -19
13 -9 0 -15 13 -17 38 -2 28 0 37 12 37 9 0 16 7 16 15 0 8 -7 15 -15 15 -8 0
-15 7 -15 15 0 8 -7 15 -15 15 -8 0 -15 -7 -15 -15z"/>
<path d="M2636 1546 c-10 -15 -12 -27 -6 -31 6 -3 10 -23 10 -44 0 -20 5 -42
12 -49 15 -15 58 -16 58 -2 0 6 -7 10 -15 10 -11 0 -15 11 -15 40 0 22 5 40
10 40 6 0 10 7 10 15 0 8 -4 15 -10 15 -5 0 -10 7 -10 15 0 23 -26 18 -44 -9z"/>
<path d="M3640 1555 c0 -8 -4 -15 -10 -15 -5 0 -10 -7 -10 -15 0 -8 4 -15 9
-15 6 0 11 -21 13 -47 3 -46 4 -48 37 -51 24 -3 32 0 29 10 -3 7 -11 13 -19
13 -9 0 -15 13 -17 38 -2 28 0 37 12 37 9 0 16 7 16 15 0 8 -7 15 -15 15 -8 0
-15 7 -15 15 0 8 -7 15 -15 15 -8 0 -15 -7 -15 -15z"/>
<path d="M1317 1533 c-13 -12 -7 -24 11 -22 51 5 58 -12 10 -26 -28 -8 -33
-15 -33 -40 0 -29 1 -30 52 -32 l51 -1 -5 56 c-3 31 -11 60 -17 64 -14 10 -60
10 -69 1z m53 -77 c0 -20 -19 -31 -32 -18 -6 6 -7 15 -4 21 10 16 36 13 36 -3z"/>
<path d="M1455 1531 c-3 -2 -5 -31 -5 -63 0 -51 2 -58 20 -58 17 0 20 7 20 40
0 29 5 43 20 52 31 20 24 36 -15 35 -20 -1 -38 -3 -40 -6z"/>
<path d="M1577 1522 c-20 -22 -22 -71 -4 -96 15 -20 78 -19 85 2 3 9 -3 11
-20 7 -16 -4 -29 -1 -37 9 -12 14 -8 16 28 16 37 0 41 2 41 24 0 50 -60 75
-93 38z m56 -17 c7 -18 -9 -29 -30 -21 -12 5 -13 9 -3 21 16 19 26 19 33 0z"/>
<path d="M1897 1522 c-19 -21 -22 -64 -7 -93 15 -28 74 -26 94 3 47 66 -34
149 -87 90z m63 -47 c0 -39 -14 -52 -35 -35 -18 15 -20 51 -4 67 19 19 39 3
39 -32z"/>
<path d="M2040 1475 c0 -51 3 -65 15 -65 11 0 15 11 15 35 0 26 7 43 27 61 29
27 24 45 -7 26 -12 -7 -20 -8 -20 -2 0 5 -7 10 -15 10 -12 0 -15 -14 -15 -65z"/>
<path d="M2396 1518 c-37 -53 -9 -111 50 -106 40 4 46 23 7 23 -14 0 -28 6
-30 13 -3 8 7 12 31 12 33 0 36 2 36 30 0 50 -66 69 -94 28z m62 -21 c2 -12
-3 -17 -17 -17 -12 0 -21 6 -21 13 0 31 32 34 38 4z"/>
<path d="M2756 1518 c-37 -53 -9 -111 50 -106 40 4 46 23 7 23 -14 0 -28 6
-30 13 -3 8 7 12 31 12 33 0 36 2 36 30 0 50 -66 69 -94 28z m62 -21 c2 -12
-3 -17 -17 -17 -12 0 -21 6 -21 13 0 31 32 34 38 4z"/>
<path d="M2895 1531 c-3 -2 -5 -31 -5 -63 0 -51 2 -58 20 -58 17 0 20 7 20 40
0 29 5 43 20 52 31 20 24 36 -15 35 -20 -1 -38 -3 -40 -6z"/>
<path d="M3267 1522 c-20 -22 -22 -71 -4 -96 15 -20 78 -19 85 2 3 9 -3 11
-20 7 -16 -4 -29 -1 -37 9 -12 14 -8 16 28 16 37 0 41 2 41 24 0 50 -60 75
-93 38z m56 -17 c7 -18 -9 -29 -30 -21 -12 5 -13 9 -3 21 16 19 26 19 33 0z"/>
<path d="M3405 1530 c-7 -12 20 -25 33 -16 6 3 15 -1 22 -9 10 -13 8 -15 -12
-15 -14 0 -33 -9 -44 -21 -29 -32 -8 -54 52 -54 l48 0 -3 50 c-1 28 -7 56 -13
63 -12 14 -74 16 -83 2z m65 -64 c0 -16 -14 -36 -26 -36 -14 0 -19 22 -7 33 7
8 33 10 33 3z"/>
</g>
</svg>
